<mxfile host="app.diagrams.net" modified="2023-03-09T13:16:39.172Z" agent="5.0 (Macintosh; Intel Mac OS X 10_15_7) AppleWebKit/537.36 (KHTML, like Gecko) Chrome/105.0.0.0 Safari/537.36" etag="vIKHonpAdizVku6EsDyp" version="21.0.4" type="github">
  <diagram name="Página-1" id="oyEDQWYp5wJ-DUbzZ0i5">
    <mxGraphModel dx="953" dy="502" grid="1" gridSize="10" guides="1" tooltips="1" connect="1" arrows="1" fold="1" page="1" pageScale="1" pageWidth="827" pageHeight="1169" math="0" shadow="0">
      <root>
        <mxCell id="0" />
        <mxCell id="1" parent="0" />
        <mxCell id="Buw7csAVwOY3NfJjQJJU-58" style="rounded=0;orthogonalLoop=1;jettySize=auto;html=1;entryX=0;entryY=0.5;entryDx=0;entryDy=0;endArrow=none;endFill=0;" edge="1" parent="1" source="Buw7csAVwOY3NfJjQJJU-39" target="Buw7csAVwOY3NfJjQJJU-54">
          <mxGeometry relative="1" as="geometry" />
        </mxCell>
        <mxCell id="Buw7csAVwOY3NfJjQJJU-39" value="zoo" style="rounded=1;arcSize=10;whiteSpace=wrap;html=1;align=center;" vertex="1" parent="1">
          <mxGeometry x="90" y="585" width="80" height="40" as="geometry" />
        </mxCell>
        <mxCell id="Buw7csAVwOY3NfJjQJJU-40" value="animales" style="rounded=1;arcSize=10;whiteSpace=wrap;html=1;align=center;" vertex="1" parent="1">
          <mxGeometry x="364" y="585" width="100" height="40" as="geometry" />
        </mxCell>
        <mxCell id="Buw7csAVwOY3NfJjQJJU-67" style="rounded=0;orthogonalLoop=1;jettySize=auto;html=1;exitX=1;exitY=0;exitDx=0;exitDy=0;entryX=0;entryY=1;entryDx=0;entryDy=0;endArrow=none;endFill=0;" edge="1" parent="1" source="Buw7csAVwOY3NfJjQJJU-41" target="Buw7csAVwOY3NfJjQJJU-62">
          <mxGeometry relative="1" as="geometry" />
        </mxCell>
        <mxCell id="Buw7csAVwOY3NfJjQJJU-68" style="edgeStyle=orthogonalEdgeStyle;rounded=0;orthogonalLoop=1;jettySize=auto;html=1;entryX=0;entryY=0.5;entryDx=0;entryDy=0;endArrow=none;endFill=0;" edge="1" parent="1" source="Buw7csAVwOY3NfJjQJJU-41" target="Buw7csAVwOY3NfJjQJJU-63">
          <mxGeometry relative="1" as="geometry" />
        </mxCell>
        <mxCell id="Buw7csAVwOY3NfJjQJJU-41" value="Espacias" style="rounded=1;arcSize=10;whiteSpace=wrap;html=1;align=center;" vertex="1" parent="1">
          <mxGeometry x="620" y="585" width="100" height="40" as="geometry" />
        </mxCell>
        <mxCell id="Buw7csAVwOY3NfJjQJJU-53" style="rounded=0;orthogonalLoop=1;jettySize=auto;html=1;endArrow=none;endFill=0;" edge="1" parent="1" source="Buw7csAVwOY3NfJjQJJU-42" target="Buw7csAVwOY3NfJjQJJU-39">
          <mxGeometry relative="1" as="geometry" />
        </mxCell>
        <mxCell id="Buw7csAVwOY3NfJjQJJU-42" value="tamaño" style="ellipse;whiteSpace=wrap;html=1;align=center;" vertex="1" parent="1">
          <mxGeometry x="5" y="625" width="70" height="40" as="geometry" />
        </mxCell>
        <mxCell id="Buw7csAVwOY3NfJjQJJU-52" style="rounded=0;orthogonalLoop=1;jettySize=auto;html=1;entryX=0;entryY=0.5;entryDx=0;entryDy=0;endArrow=none;endFill=0;" edge="1" parent="1" source="Buw7csAVwOY3NfJjQJJU-43" target="Buw7csAVwOY3NfJjQJJU-39">
          <mxGeometry relative="1" as="geometry" />
        </mxCell>
        <mxCell id="Buw7csAVwOY3NfJjQJJU-43" value="id_zoo" style="ellipse;whiteSpace=wrap;html=1;align=center;" vertex="1" parent="1">
          <mxGeometry x="5" y="565" width="70" height="40" as="geometry" />
        </mxCell>
        <mxCell id="Buw7csAVwOY3NfJjQJJU-51" style="rounded=0;orthogonalLoop=1;jettySize=auto;html=1;exitX=0.5;exitY=1;exitDx=0;exitDy=0;entryX=0;entryY=0;entryDx=0;entryDy=0;endArrow=none;endFill=0;" edge="1" parent="1" source="Buw7csAVwOY3NfJjQJJU-44" target="Buw7csAVwOY3NfJjQJJU-39">
          <mxGeometry relative="1" as="geometry" />
        </mxCell>
        <mxCell id="Buw7csAVwOY3NfJjQJJU-44" value="pais" style="ellipse;whiteSpace=wrap;html=1;align=center;" vertex="1" parent="1">
          <mxGeometry x="5" y="510" width="80" height="40" as="geometry" />
        </mxCell>
        <mxCell id="Buw7csAVwOY3NfJjQJJU-50" style="rounded=0;orthogonalLoop=1;jettySize=auto;html=1;entryX=0.36;entryY=0.013;entryDx=0;entryDy=0;entryPerimeter=0;endArrow=none;endFill=0;" edge="1" parent="1" source="Buw7csAVwOY3NfJjQJJU-45" target="Buw7csAVwOY3NfJjQJJU-39">
          <mxGeometry relative="1" as="geometry" />
        </mxCell>
        <mxCell id="Buw7csAVwOY3NfJjQJJU-45" value="ciudad" style="ellipse;whiteSpace=wrap;html=1;align=center;" vertex="1" parent="1">
          <mxGeometry x="90" y="510" width="70" height="40" as="geometry" />
        </mxCell>
        <mxCell id="Buw7csAVwOY3NfJjQJJU-49" style="rounded=0;orthogonalLoop=1;jettySize=auto;html=1;entryX=0.84;entryY=-0.037;entryDx=0;entryDy=0;entryPerimeter=0;endArrow=none;endFill=0;" edge="1" parent="1" source="Buw7csAVwOY3NfJjQJJU-46" target="Buw7csAVwOY3NfJjQJJU-39">
          <mxGeometry relative="1" as="geometry" />
        </mxCell>
        <mxCell id="Buw7csAVwOY3NfJjQJJU-46" value="nombre" style="ellipse;whiteSpace=wrap;html=1;align=center;" vertex="1" parent="1">
          <mxGeometry x="160" y="510" width="60" height="40" as="geometry" />
        </mxCell>
        <mxCell id="Buw7csAVwOY3NfJjQJJU-48" style="rounded=0;orthogonalLoop=1;jettySize=auto;html=1;entryX=1;entryY=0;entryDx=0;entryDy=0;endArrow=none;endFill=0;" edge="1" parent="1" source="Buw7csAVwOY3NfJjQJJU-47" target="Buw7csAVwOY3NfJjQJJU-39">
          <mxGeometry relative="1" as="geometry" />
        </mxCell>
        <mxCell id="Buw7csAVwOY3NfJjQJJU-47" value="presupueso&lt;br&gt;anual" style="ellipse;whiteSpace=wrap;html=1;align=center;" vertex="1" parent="1">
          <mxGeometry x="210" y="540" width="70" height="35" as="geometry" />
        </mxCell>
        <mxCell id="Buw7csAVwOY3NfJjQJJU-57" style="rounded=0;orthogonalLoop=1;jettySize=auto;html=1;entryX=0;entryY=0.5;entryDx=0;entryDy=0;endArrow=none;endFill=0;" edge="1" parent="1" source="Buw7csAVwOY3NfJjQJJU-54" target="Buw7csAVwOY3NfJjQJJU-40">
          <mxGeometry relative="1" as="geometry" />
        </mxCell>
        <mxCell id="Buw7csAVwOY3NfJjQJJU-54" value="tiene" style="shape=rhombus;perimeter=rhombusPerimeter;whiteSpace=wrap;html=1;align=center;" vertex="1" parent="1">
          <mxGeometry x="230" y="575" width="100" height="60" as="geometry" />
        </mxCell>
        <mxCell id="Buw7csAVwOY3NfJjQJJU-56" style="rounded=0;orthogonalLoop=1;jettySize=auto;html=1;entryX=0;entryY=0.5;entryDx=0;entryDy=0;endArrow=none;endFill=0;" edge="1" parent="1" source="Buw7csAVwOY3NfJjQJJU-55" target="Buw7csAVwOY3NfJjQJJU-41">
          <mxGeometry relative="1" as="geometry" />
        </mxCell>
        <mxCell id="Buw7csAVwOY3NfJjQJJU-61" value="" style="edgeStyle=orthogonalEdgeStyle;rounded=0;orthogonalLoop=1;jettySize=auto;html=1;endArrow=none;endFill=0;" edge="1" parent="1" source="Buw7csAVwOY3NfJjQJJU-55" target="Buw7csAVwOY3NfJjQJJU-40">
          <mxGeometry relative="1" as="geometry" />
        </mxCell>
        <mxCell id="Buw7csAVwOY3NfJjQJJU-55" value="perttenece" style="shape=rhombus;perimeter=rhombusPerimeter;whiteSpace=wrap;html=1;align=center;" vertex="1" parent="1">
          <mxGeometry x="490" y="575" width="100" height="60" as="geometry" />
        </mxCell>
        <mxCell id="Buw7csAVwOY3NfJjQJJU-60" style="rounded=0;orthogonalLoop=1;jettySize=auto;html=1;entryX=0.82;entryY=0.038;entryDx=0;entryDy=0;entryPerimeter=0;endArrow=none;endFill=0;" edge="1" parent="1" source="Buw7csAVwOY3NfJjQJJU-59" target="Buw7csAVwOY3NfJjQJJU-41">
          <mxGeometry relative="1" as="geometry" />
        </mxCell>
        <mxCell id="Buw7csAVwOY3NfJjQJJU-59" value="id_espacia" style="ellipse;whiteSpace=wrap;html=1;align=center;fontStyle=4;" vertex="1" parent="1">
          <mxGeometry x="660" y="470" width="100" height="40" as="geometry" />
        </mxCell>
        <mxCell id="Buw7csAVwOY3NfJjQJJU-62" value="Attribute" style="ellipse;whiteSpace=wrap;html=1;align=center;fontStyle=4;" vertex="1" parent="1">
          <mxGeometry x="740" y="525" width="80" height="40" as="geometry" />
        </mxCell>
        <mxCell id="Buw7csAVwOY3NfJjQJJU-63" value="Attribute" style="ellipse;whiteSpace=wrap;html=1;align=center;fontStyle=4;" vertex="1" parent="1">
          <mxGeometry x="740" y="585" width="80" height="40" as="geometry" />
        </mxCell>
        <mxCell id="Buw7csAVwOY3NfJjQJJU-65" style="rounded=0;orthogonalLoop=1;jettySize=auto;html=1;endArrow=none;endFill=0;" edge="1" parent="1" source="Buw7csAVwOY3NfJjQJJU-64">
          <mxGeometry relative="1" as="geometry">
            <mxPoint x="700" y="630" as="targetPoint" />
          </mxGeometry>
        </mxCell>
        <mxCell id="Buw7csAVwOY3NfJjQJJU-64" value="Attribute" style="ellipse;whiteSpace=wrap;html=1;align=center;fontStyle=4;" vertex="1" parent="1">
          <mxGeometry x="743" y="635" width="77" height="40" as="geometry" />
        </mxCell>
        <mxCell id="Buw7csAVwOY3NfJjQJJU-75" style="rounded=0;orthogonalLoop=1;jettySize=auto;html=1;exitX=1;exitY=0.5;exitDx=0;exitDy=0;entryX=0.1;entryY=0.013;entryDx=0;entryDy=0;entryPerimeter=0;endArrow=none;endFill=0;" edge="1" parent="1" source="Buw7csAVwOY3NfJjQJJU-69" target="Buw7csAVwOY3NfJjQJJU-40">
          <mxGeometry relative="1" as="geometry" />
        </mxCell>
        <mxCell id="Buw7csAVwOY3NfJjQJJU-69" value="pais-origen" style="ellipse;whiteSpace=wrap;html=1;align=center;fontStyle=4;" vertex="1" parent="1">
          <mxGeometry x="284" y="450" width="80" height="30" as="geometry" />
        </mxCell>
        <mxCell id="Buw7csAVwOY3NfJjQJJU-76" style="rounded=0;orthogonalLoop=1;jettySize=auto;html=1;entryX=0.38;entryY=0.013;entryDx=0;entryDy=0;entryPerimeter=0;endArrow=none;endFill=0;" edge="1" parent="1" source="Buw7csAVwOY3NfJjQJJU-70" target="Buw7csAVwOY3NfJjQJJU-40">
          <mxGeometry relative="1" as="geometry" />
        </mxCell>
        <mxCell id="Buw7csAVwOY3NfJjQJJU-70" value="sexo" style="ellipse;whiteSpace=wrap;html=1;align=center;fontStyle=4;" vertex="1" parent="1">
          <mxGeometry x="370" y="430" width="80" height="30" as="geometry" />
        </mxCell>
        <mxCell id="Buw7csAVwOY3NfJjQJJU-77" style="rounded=0;orthogonalLoop=1;jettySize=auto;html=1;entryX=0.65;entryY=-0.112;entryDx=0;entryDy=0;entryPerimeter=0;endArrow=none;endFill=0;" edge="1" parent="1" source="Buw7csAVwOY3NfJjQJJU-71" target="Buw7csAVwOY3NfJjQJJU-40">
          <mxGeometry relative="1" as="geometry" />
        </mxCell>
        <mxCell id="Buw7csAVwOY3NfJjQJJU-71" value="Attribute" style="ellipse;whiteSpace=wrap;html=1;align=center;fontStyle=4;" vertex="1" parent="1">
          <mxGeometry x="457.5" y="450" width="86" height="30" as="geometry" />
        </mxCell>
        <mxCell id="Buw7csAVwOY3NfJjQJJU-78" style="rounded=0;orthogonalLoop=1;jettySize=auto;html=1;entryX=1;entryY=0.25;entryDx=0;entryDy=0;endArrow=none;endFill=0;" edge="1" parent="1" source="Buw7csAVwOY3NfJjQJJU-72" target="Buw7csAVwOY3NfJjQJJU-40">
          <mxGeometry relative="1" as="geometry" />
        </mxCell>
        <mxCell id="Buw7csAVwOY3NfJjQJJU-72" value="nacimientos" style="ellipse;whiteSpace=wrap;html=1;align=center;fontStyle=4;" vertex="1" parent="1">
          <mxGeometry x="460.5" y="490" width="80" height="30" as="geometry" />
        </mxCell>
        <mxCell id="Buw7csAVwOY3NfJjQJJU-74" style="rounded=0;orthogonalLoop=1;jettySize=auto;html=1;entryX=0;entryY=0;entryDx=0;entryDy=0;endArrow=none;endFill=0;" edge="1" parent="1" source="Buw7csAVwOY3NfJjQJJU-73" target="Buw7csAVwOY3NfJjQJJU-40">
          <mxGeometry relative="1" as="geometry" />
        </mxCell>
        <mxCell id="Buw7csAVwOY3NfJjQJJU-73" value="id_animales" style="ellipse;whiteSpace=wrap;html=1;align=center;fontStyle=4;" vertex="1" parent="1">
          <mxGeometry x="294" y="495" width="60" height="30" as="geometry" />
        </mxCell>
        <mxCell id="Buw7csAVwOY3NfJjQJJU-79" value="n,1" style="text;html=1;align=center;verticalAlign=middle;resizable=0;points=[];autosize=1;strokeColor=none;fillColor=none;" vertex="1" parent="1">
          <mxGeometry x="520" y="540" width="40" height="30" as="geometry" />
        </mxCell>
        <mxCell id="Buw7csAVwOY3NfJjQJJU-80" value="1" style="text;html=1;align=center;verticalAlign=middle;resizable=0;points=[];autosize=1;strokeColor=none;fillColor=none;" vertex="1" parent="1">
          <mxGeometry x="595" y="575" width="30" height="30" as="geometry" />
        </mxCell>
        <mxCell id="Buw7csAVwOY3NfJjQJJU-83" value="1" style="text;html=1;align=center;verticalAlign=middle;resizable=0;points=[];autosize=1;strokeColor=none;fillColor=none;" vertex="1" parent="1">
          <mxGeometry x="595" y="615" width="30" height="30" as="geometry" />
        </mxCell>
        <mxCell id="Buw7csAVwOY3NfJjQJJU-84" value="1" style="text;html=1;align=center;verticalAlign=middle;resizable=0;points=[];autosize=1;strokeColor=none;fillColor=none;" vertex="1" parent="1">
          <mxGeometry x="175" y="575" width="30" height="30" as="geometry" />
        </mxCell>
        <mxCell id="Buw7csAVwOY3NfJjQJJU-85" value="1" style="text;html=1;align=center;verticalAlign=middle;resizable=0;points=[];autosize=1;strokeColor=none;fillColor=none;" vertex="1" parent="1">
          <mxGeometry x="175" y="605" width="30" height="30" as="geometry" />
        </mxCell>
        <mxCell id="Buw7csAVwOY3NfJjQJJU-86" value="1,n" style="text;html=1;align=center;verticalAlign=middle;resizable=0;points=[];autosize=1;strokeColor=none;fillColor=none;" vertex="1" parent="1">
          <mxGeometry x="270" y="555" width="40" height="30" as="geometry" />
        </mxCell>
      </root>
    </mxGraphModel>
  </diagram>
</mxfile>
